<svg width="20" height="20" viewBox="0 0 20 20" fill="none" xmlns="http://www.w3.org/2000/svg">
<path d="M10.4263 19.5483C3.83501 19.5483 2.07391 12.6773 2.86997 8.17541C2.90462 7.97948 3.16145 7.92303 3.27337 8.08756C3.61993 8.59694 3.92833 9.33268 4.4393 9.26881C5.20731 9.1728 5.73938 2.39592 10.2911 0.489089C10.4356 0.428581 10.5867 0.543386 10.5709 0.699167C10.3458 2.90749 11.6717 6.06901 14.0207 6.06901C15.3673 6.06901 16.2886 4.99432 16.749 3.91503C16.8888 3.58717 17.3679 3.6285 17.448 3.97581C18.2696 7.5337 20.4656 19.5483 10.4263 19.5483Z" fill="#FF8F1F"/>
<path d="M8.11557 12.923C8.27057 12.7928 8.50588 12.8821 8.54108 13.0815C8.62342 13.548 8.8942 14.3498 9.78241 14.3498C10.8508 14.3498 11.5759 11.4098 11.7661 10.5451C11.7974 10.4029 11.936 10.3063 12.0787 10.3353C14.7489 10.8782 16.0471 19.5485 10.1763 19.5485C5.90237 19.5485 6.87061 13.9689 8.11557 12.923ZM15.4117 3.53342C15.5058 2.79741 14.1622 4.81049 14.1622 4.81049C14.1622 4.81049 15.1865 5.29432 15.4117 3.53342ZM1.87366 14.5101C1.90198 14.1967 1.49889 13.3578 1.42752 13.69C1.2567 14.4847 1.84534 14.8234 1.87366 14.5101Z" fill="#FFB636"/>
<path d="M12.624 13.617C12.5239 13.1994 12.1648 14.1693 12.21 14.5644C12.2551 14.9594 12.8635 14.616 12.624 13.617Z" fill="#FFD469"/>
</svg>
