<svg width="13" height="13" viewBox="0 0 13 13" fill="none" xmlns="http://www.w3.org/2000/svg">
<path fill-rule="evenodd" clip-rule="evenodd" d="M8.00742 6.15758C7.87534 5.85276 7.73784 5.54872 7.59144 5.24777C8.84247 4.70591 9.84795 3.97001 10.597 3.03696C11.3279 3.90029 11.7865 4.99679 11.8543 6.19748C10.4595 5.96896 9.17673 5.95618 8.00742 6.15758ZM9.48039 10.963C9.24296 9.68876 8.89515 8.44315 8.44044 7.22774C9.45637 7.08405 10.5746 7.12123 11.7977 7.33387C11.5614 8.84325 10.7001 10.1466 9.48039 10.963ZM3.20467 10.7306C4.27134 9.05744 5.63277 7.96868 7.31993 7.46594C7.82228 8.77663 8.19178 10.1253 8.42688 11.5064C6.66923 12.1858 4.69468 11.8938 3.20467 10.7306ZM1.13794 6.3617C3.2221 6.3586 5.02042 6.11924 6.5267 5.64516C6.65296 5.90234 6.77381 6.16068 6.88961 6.42096C5.05954 6.99264 3.55093 8.16544 2.37426 9.93084C1.5272 8.91413 1.10579 7.68129 1.13794 6.3617ZM4.07769 1.71427C4.79887 2.65816 5.43756 3.63111 5.99336 4.62923C4.67648 5.01693 3.1059 5.21601 1.28899 5.22841C1.66431 3.69269 2.69845 2.4157 4.07769 1.71427ZM9.7732 2.25303C9.12095 3.09467 8.22005 3.76008 7.07204 4.24617C6.52205 3.23837 5.89343 2.25535 5.18309 1.301C6.79124 0.891219 8.45399 1.23438 9.7732 2.25303ZM6.49997 0C2.91031 0 0 2.91031 0 6.49997C0 10.0896 2.91031 12.9999 6.49997 12.9999C10.0896 12.9999 12.9999 10.0896 12.9999 6.49997C12.9999 2.91031 10.0896 0 6.49997 0Z" fill="black"/>
</svg>
