<svg width="14" height="14" viewBox="0 0 14 14" fill="none" xmlns="http://www.w3.org/2000/svg">
<path d="M11.4333 8.86667H9.8V5.13333H11.4333C12.8485 5.13333 14 3.98183 14 2.56667C14 1.1515 12.8485 0 11.4333 0C10.0182 0 8.86667 1.1515 8.86667 2.56667V4.2H5.13333V2.56667C5.13333 1.1515 3.98183 0 2.56667 0C1.1515 0 0 1.1515 0 2.56667C0 3.98183 1.1515 5.13333 2.56667 5.13333H4.2V8.86667H2.56667C1.1515 8.86667 0 10.0182 0 11.4333C0 12.8485 1.1515 14 2.56667 14C3.98183 14 5.13333 12.8485 5.13333 11.4333V9.8H8.86667V11.4333C8.86667 12.8485 10.0182 14 11.4333 14C12.8485 14 14 12.8485 14 11.4333C14 10.0182 12.8485 8.86667 11.4333 8.86667ZM9.8 2.56667C9.8 1.66623 10.5327 0.933333 11.4333 0.933333C12.334 0.933333 13.0667 1.66623 13.0667 2.56667C13.0667 3.4671 12.334 4.2 11.4333 4.2H9.8V2.56667ZM2.56667 4.2C1.666 4.2 0.933333 3.4671 0.933333 2.56667C0.933333 1.66623 1.666 0.933333 2.56667 0.933333C3.46733 0.933333 4.2 1.66623 4.2 2.56667V4.2H2.56667ZM4.2 11.4333C4.2 12.3338 3.46733 13.0667 2.56667 13.0667C1.666 13.0667 0.933333 12.3338 0.933333 11.4333C0.933333 10.5329 1.666 9.8 2.56667 9.8H4.2V11.4333ZM5.13333 8.86667V5.13333H8.86667V8.86667H5.13333ZM11.4333 13.0667C10.5327 13.0667 9.8 12.3338 9.8 11.4333V9.8H11.4333C12.334 9.8 13.0667 10.5329 13.0667 11.4333C13.0667 12.3338 12.334 13.0667 11.4333 13.0667Z" fill="#111827"/>
</svg>
