<svg width="13" height="8" viewBox="0 0 13 8" fill="none" xmlns="http://www.w3.org/2000/svg">
<path d="M9.881 1.99366C6.87715 1.99366 6.87326 4.9862 6.87326 5.00158C6.87326 5.00158 6.66748 7.99783 9.881 7.99783C9.881 7.99783 12.561 8.15022 12.561 5.91258H11.1848C11.1848 5.91258 11.2304 6.75498 9.92679 6.75498C9.92679 6.75498 8.55065 6.84657 8.55065 5.39405H12.6068C12.6068 5.39405 13.0528 1.99366 9.881 1.99366ZM8.53526 4.34568C8.53526 4.34568 8.70304 3.14103 9.91159 3.14103C11.1238 3.14103 11.1047 4.34568 11.1047 4.34568H8.53526ZM5.09706 3.57576C5.09706 3.57576 6.29022 3.48808 6.29022 2.08524C6.29022 0.686306 5.31433 0 4.07539 0H0V7.83376H4.07501C4.07501 7.83376 6.5644 7.91014 6.5644 5.51993C6.56459 5.51993 6.67137 3.57576 5.09706 3.57576ZM1.79567 1.39134H4.0752C4.0752 1.39134 4.62803 1.39134 4.62803 2.20704C4.62803 3.02275 4.30397 3.14103 3.93412 3.14103H1.79567V1.39134ZM3.961 6.44242H1.79567V4.34568H4.0752C4.0752 4.34568 4.90259 4.33808 4.89869 5.42445C4.89869 6.33953 4.28506 6.43482 3.961 6.44242ZM8.19601 0.461245V1.42582H11.4288V0.461245H8.19601Z" fill="#F1F2F2"/>
</svg>
