<svg width="11" height="16" viewBox="0 0 11 16" fill="none" xmlns="http://www.w3.org/2000/svg">
<path d="M2.69561 9.8613L4.04394 10.4643C4.90654 10.8495 5.89476 10.8495 6.76573 10.4643L8.11407 9.8613C9.32003 9.32532 10.4339 10.7825 9.5964 11.8042L6.69874 15.3468C5.98689 16.2177 4.82279 16.2177 4.10257 15.3468L1.21329 11.8042C0.367437 10.7825 1.48127 9.32532 2.69561 9.8613Z" fill="white"/>
<path d="M2.52809 7.55002C2.27684 7.73427 2.31035 8.1195 2.59509 8.26187L4.56315 9.24172C5.02376 9.47621 5.76911 9.47621 6.22135 9.24172L8.18941 8.26187C8.46578 8.1195 8.49928 7.74264 8.25641 7.55002L5.65187 5.59033C5.50112 5.48146 5.30012 5.48146 5.14938 5.59033L2.52809 7.55002Z" fill="white"/>
<path d="M10.3248 4.67724L6.83257 0.322372C6.76558 0.238625 6.6902 0.163252 6.61483 0.0878797C6.39709 -0.121489 6.08722 0.0711302 6.08722 0.372621V3.97376C6.08722 4.10775 6.14584 4.23337 6.25472 4.30875L9.73023 6.92167L9.88098 7.03054C10.0317 7.13941 10.2411 7.13941 10.3667 7.00541C10.9529 6.36893 10.9446 5.44771 10.3248 4.67724Z" fill="white"/>
<path d="M0.46821 4.75263L3.94373 0.330772C4.01073 0.247024 4.07772 0.171652 4.1531 0.096279C4.37084 -0.113089 4.6807 0.0711547 4.6807 0.38102V4.04078C4.6807 4.17478 4.62208 4.29202 4.51321 4.37577L1.05444 7.03056L0.91207 7.13943C0.761325 7.2483 0.55196 7.2483 0.417964 7.10593C-0.151518 6.46108 -0.143146 5.53986 0.46821 4.75263Z" fill="white"/>
</svg>
