<svg width="18" height="15" viewBox="0 0 18 15" fill="none" xmlns="http://www.w3.org/2000/svg">
<path d="M8.86363 15C8.77395 15 8.68431 14.9773 8.60399 14.9319C8.51674 14.8827 6.44379 13.7052 4.34111 11.9309C3.09487 10.8793 2.10007 9.83633 1.3844 8.83094C0.458296 7.52996 -0.00742382 6.27858 8.947e-05 5.1115C0.00888383 3.75348 0.506042 2.47635 1.40009 1.51533C2.30923 0.538128 3.52251 0 4.81649 0C6.47485 0 7.99105 0.908849 8.86366 2.34858C9.73628 0.908883 11.2525 0 12.9108 0C14.1333 0 15.2997 0.485555 16.1952 1.36724C17.1779 2.33479 17.7363 3.70189 17.7272 5.11794C17.7196 6.28298 17.2452 7.53247 16.317 8.83165C15.5991 9.83653 14.6057 10.8791 13.3644 11.9303C11.2694 13.7044 9.21132 14.8819 9.12472 14.9312C9.04401 14.977 8.95379 15 8.86363 15Z" fill="black"/>
</svg>
