<svg width="2060" height="450" viewBox="0 0 2060 450" fill="none" xmlns="http://www.w3.org/2000/svg">
<path d="M70.6444 126.199L289.331 308.199C342.406 352.37 414.511 366.04 480.071 344.362L683.208 277.191C726.248 262.959 772.847 263.77 815.366 279.492L1008.56 350.926C1070.04 373.658 1138.76 364.823 1192.49 327.279L1326.71 233.493C1389.17 189.846 1471.01 185.484 1537.76 222.245L1604.5 259.001C1683.95 302.753 1782.89 287.573 1845.56 222.016L1989.27 71.6957" stroke="white" stroke-opacity="0.1"/>
<g filter="url(#filter0_f_108_273)">
<path d="M70.6444 125.199L374.665 378.216L683.208 276.191C716.129 265.305 732.589 259.863 749.586 260.158C766.583 260.454 782.844 266.467 815.366 278.492L1008.56 349.926C1056.65 367.706 1080.69 376.596 1105.07 373.461C1129.45 370.327 1150.47 355.644 1192.49 326.279L1326.71 232.493C1376.33 197.817 1401.15 180.48 1429.68 178.959C1458.22 177.438 1484.73 192.04 1537.76 221.245L1604.5 258.001C1669.28 293.676 1701.67 311.514 1735.29 306.356C1768.91 301.198 1794.46 274.471 1845.56 221.016L1989.27 70.6956" stroke="white" stroke-width="2"/>
</g>
<defs>
<filter id="filter0_f_108_273" x="0" y="0" width="2060" height="449.345" filterUnits="userSpaceOnUse" color-interpolation-filters="sRGB">
<feFlood flood-opacity="0" result="BackgroundImageFix"/>
<feBlend mode="normal" in="SourceGraphic" in2="BackgroundImageFix" result="shape"/>
<feGaussianBlur stdDeviation="35" result="effect1_foregroundBlur_108_273"/>
</filter>
</defs>
</svg>
