<svg width="209" height="57" viewBox="0 0 209 57" fill="none" xmlns="http://www.w3.org/2000/svg">
<g clip-path="url(#clip0_10_900)">
<path d="M19 28.5C19 25.9804 20.0009 23.5641 21.7825 21.7825C23.5641 20.0009 25.9804 19 28.5 19C31.0196 19 33.4359 20.0009 35.2175 21.7825C36.9991 23.5641 38 25.9804 38 28.5C38 31.0196 36.9991 33.4359 35.2175 35.2175C33.4359 36.9991 31.0196 38 28.5 38C25.9804 38 23.5641 36.9991 21.7825 35.2175C20.0009 33.4359 19 31.0196 19 28.5Z" fill="#1ABCFE"/>
<path d="M0 47.5C0 44.9804 1.00089 42.5641 2.78249 40.7825C4.56408 39.0009 6.98044 38 9.5 38H19V47.5C19 50.0196 17.9991 52.4359 16.2175 54.2175C14.4359 55.9991 12.0196 57 9.5 57C6.98044 57 4.56408 55.9991 2.78249 54.2175C1.00089 52.4359 0 50.0196 0 47.5H0Z" fill="#0ACF83"/>
<path d="M19 0V19H28.5C31.0196 19 33.4359 17.9991 35.2175 16.2175C36.9991 14.4359 38 12.0196 38 9.5C38 6.98044 36.9991 4.56408 35.2175 2.78249C33.4359 1.00089 31.0196 0 28.5 0L19 0Z" fill="#FF7262"/>
<path d="M0 9.5C0 12.0196 1.00089 14.4359 2.78249 16.2175C4.56408 17.9991 6.98044 19 9.5 19H19V0H9.5C6.98044 0 4.56408 1.00089 2.78249 2.78249C1.00089 4.56408 0 6.98044 0 9.5H0Z" fill="#F24E1E"/>
<path d="M0 28.5C0 31.0196 1.00089 33.4359 2.78249 35.2175C4.56408 36.9991 6.98044 38 9.5 38H19V19H9.5C6.98044 19 4.56408 20.0009 2.78249 21.7825C1.00089 23.5641 0 25.9804 0 28.5H0Z" fill="#A259FF"/>
</g>
<path d="M49.14 0V44.1969L54.84 44.2188V23.1727H68.5419V17.6042H54.8181V5.54654H72.6854V0H49.14ZM82.9016 8.98846C83.89 8.98846 84.838 8.59581 85.5369 7.89687C86.2358 7.19794 86.6285 6.24998 86.6285 5.26154C86.6285 4.2731 86.2358 3.32514 85.5369 2.62621C84.838 1.92727 83.89 1.53462 82.9016 1.53462C81.9131 1.53462 80.9652 1.92727 80.2662 2.62621C79.5673 3.32514 79.1746 4.2731 79.1746 5.26154C79.1746 6.24998 79.5673 7.19794 80.2662 7.89687C80.9652 8.59581 81.9131 8.98846 82.9016 8.98846ZM80.0296 14.535V44.2188H85.7296V14.535H80.0296Z" fill="white"/>
<path fill-rule="evenodd" clip-rule="evenodd" d="M106.798 13.68C99.2562 13.68 93.9946 20.0596 93.9946 27.645C93.9946 35.2304 99.2562 41.61 106.798 41.61C110.262 41.61 113.112 40.2946 115.194 38.1023V42.0485C115.209 43.2275 114.989 44.3978 114.549 45.4916C114.108 46.5854 113.455 47.581 112.628 48.4209C111.8 49.2608 110.814 49.9284 109.727 50.3849C108.64 50.8414 107.473 51.078 106.293 51.0808C104.474 51.0808 102.676 50.3792 101.251 49.3708L98.4012 54.3035C100.605 55.728 103.152 56.5313 105.775 56.6286C108.397 56.726 110.997 56.1138 113.3 54.8566C115.603 53.5994 117.525 51.7439 118.861 49.4858C120.198 47.2276 120.9 44.6506 120.894 42.0265V14.5569H115.194V17.2096C113.112 15.0173 110.262 13.7019 106.798 13.7019V13.68ZM99.6727 27.645C99.6727 22.9315 103.268 19.2265 107.433 19.2265C111.599 19.2265 115.172 22.9535 115.172 27.645C115.172 32.3585 111.577 36.0415 107.433 36.0415C103.268 36.0415 99.6727 32.3585 99.6727 27.645Z" fill="white"/>
<path d="M141.37 19.2265C139.74 19.2553 138.187 19.9247 137.046 21.0898C135.906 22.255 135.27 23.8223 135.276 25.4527V44.2189H129.576V14.535H135.276V17.2535C136.129 16.1232 137.236 15.2104 138.509 14.5894C139.781 13.9684 141.182 13.6568 142.598 13.68C146.588 13.68 149.657 15.6531 151.411 18.6785C152.39 17.1618 153.729 15.9114 155.309 15.0391C156.889 14.1668 158.661 13.6998 160.465 13.68C166.933 13.68 170.988 18.8977 170.988 25.365V44.2189H165.332V25.4308C165.338 23.8003 164.702 22.2331 163.562 21.0679C162.421 19.9028 160.868 19.2334 159.238 19.2046C157.608 19.2334 156.054 19.9028 154.914 21.0679C153.773 22.2331 153.137 23.8003 153.143 25.4308V44.1969H147.443V25.4308C147.449 23.8041 146.816 22.24 145.68 21.0755C144.545 19.911 142.997 19.2391 141.37 19.2046V19.2265Z" fill="white"/>
<path fill-rule="evenodd" clip-rule="evenodd" d="M201.308 17.9112C200.014 16.5615 198.458 15.4901 196.735 14.7626C195.012 14.0351 193.159 13.6667 191.289 13.68C182.827 13.68 176.82 20.8269 176.82 29.3769C176.82 37.9269 182.827 45.0739 191.289 45.0739C193.159 45.0833 195.011 44.7132 196.733 43.9859C198.455 43.2586 200.011 42.1893 201.308 40.8427V44.2189H206.986V14.535H201.286V17.9112H201.308ZM182.498 29.3769C182.498 23.7208 186.839 19.2265 191.903 19.2265C196.945 19.2265 201.308 23.7208 201.308 29.3769C201.308 35.0331 196.967 39.5054 191.903 39.5054C186.861 39.5054 182.498 35.0331 182.498 29.3769Z" fill="white"/>
<defs>
<clipPath id="clip0_10_900">
<rect width="38" height="57" fill="white"/>
</clipPath>
</defs>
</svg>
