<svg width="10" height="10" viewBox="0 0 10 10" fill="none" xmlns="http://www.w3.org/2000/svg">
<path d="M2.72726 1.36363C2.72726 1.63333 2.64728 1.89697 2.49744 2.12122C2.34761 2.34547 2.13464 2.52025 1.88547 2.62346C1.6363 2.72667 1.36212 2.75367 1.0976 2.70105C0.83308 2.64844 0.590105 2.51857 0.399398 2.32786C0.208691 2.13715 0.0788183 1.89418 0.0262024 1.62966C-0.0264135 1.36514 0.000590711 1.09096 0.1038 0.84179C0.20701 0.59262 0.38179 0.37965 0.606038 0.229813C0.830285 0.0799752 1.09393 0 1.36363 0C1.72529 0 2.07213 0.143668 2.32786 0.399397C2.58359 0.655127 2.72726 1.00197 2.72726 1.36363Z" fill="black"/>
<path d="M2.41813 3.63638V9.66089C2.41837 9.70533 2.40983 9.74938 2.39298 9.79051C2.37614 9.83164 2.35134 9.86904 2.31999 9.90055C2.28865 9.93206 2.25139 9.95707 2.21035 9.97413C2.16931 9.99119 2.12531 9.99998 2.08086 9.99998H0.643599C0.599155 10.0001 0.555126 9.99143 0.514042 9.97448C0.472958 9.95752 0.435629 9.93262 0.404202 9.90119C0.372776 9.86977 0.34787 9.83244 0.330918 9.79135C0.313965 9.75027 0.305299 9.70624 0.305419 9.6618V3.63638C0.305419 3.54669 0.341049 3.46067 0.40447 3.39725C0.467891 3.33383 0.553908 3.2982 0.643599 3.2982H2.08086C2.1704 3.29844 2.25618 3.33417 2.3194 3.39757C2.38263 3.46096 2.41813 3.54684 2.41813 3.63638Z" fill="black"/>
<path d="M9.93085 6.77262V9.68897C9.93096 9.72983 9.92301 9.77032 9.90742 9.80809C9.89184 9.84587 9.86894 9.88019 9.84005 9.90908C9.81116 9.93798 9.77683 9.96087 9.73906 9.97646C9.70128 9.99204 9.6608 10 9.61994 9.99988H8.07449C8.03363 10 7.99315 9.99204 7.95537 9.97646C7.9176 9.96087 7.88328 9.93798 7.85438 9.90908C7.82549 9.88019 7.80259 9.84587 7.78701 9.80809C7.77143 9.77032 7.76347 9.72983 7.76359 9.68897V6.86262C7.76359 6.44081 7.88722 5.01536 6.66086 5.01536C5.71087 5.01536 5.51724 5.99081 5.47905 6.42899V9.68897C5.47906 9.77065 5.44693 9.84905 5.3896 9.90722C5.33228 9.9654 5.25436 9.99868 5.17269 9.99988H3.67997C3.63919 9.99988 3.5988 9.99183 3.56113 9.97619C3.52346 9.96056 3.48925 9.93764 3.46045 9.90876C3.43165 9.87988 3.40884 9.8456 3.39331 9.80788C3.37779 9.77016 3.36986 9.72976 3.36998 9.68897V3.60992C3.36986 3.56913 3.37779 3.52872 3.39331 3.49101C3.40884 3.45329 3.43165 3.41901 3.46045 3.39013C3.48925 3.36124 3.52346 3.33833 3.56113 3.32269C3.5988 3.30706 3.63919 3.29901 3.67997 3.29901H5.17269C5.25515 3.29901 5.33423 3.33177 5.39254 3.39007C5.45084 3.44838 5.4836 3.52746 5.4836 3.60992V4.13537C5.83632 3.60628 6.35905 3.1981 7.4745 3.1981C9.94539 3.1981 9.93085 5.50536 9.93085 6.77262Z" fill="black"/>
</svg>
